<?xml version="1.0" encoding="utf-8"?>
<!-- Generator: Adobe Illustrator 21.0.0, SVG Export Plug-In . SVG Version: 6.00 Build 0)  -->
<svg version="1.1" id="Layer_1" xmlns="http://www.w3.org/2000/svg" xmlns:xlink="http://www.w3.org/1999/xlink" x="0px" y="0px"
	 viewBox="0 0 292 333" style="enable-background:new 0 0 292 333;" xml:space="preserve">
<style type="text/css">
	.st0{fill:#2351A3;}
	.st1{fill:#316EB6;}
	.st2{fill:#4A82C3;}
	.st3{fill:#5C9AD3;}
	.st4{fill:#7BB8E4;}
	.st5{fill:#74A9DB;}
	.st6{fill:#FFFFFF;}
	.st7{font-family:'Calibri';}
	.st8{font-size:6px;}
</style>
<path class="st0" d="M268.5,131.8h-93.2l-28.8-88.6l-28.8,88.6H24.5l75.4,54.8l-28.8,88.6l75.4-54.8l75.4,54.8l-28.8-88.6
	L268.5,131.8z M72.3,273.4l0.2,0.1l-0.3,0.2L72.3,273.4z"/>
<polygon class="st0" points="215.3,148.8 175.5,132.3 265.9,132.3 "/>
<polygon class="st1" points="266.1,132.9 193.9,185.3 215.8,149.2 "/>
<polygon class="st2" points="184.1,159.5 215,149.5 192.9,185.9 193,186 192.9,186 "/>
<polygon class="st3" points="175.3,132.8 214.5,149.1 183.9,159 "/>
<polygon class="st4" points="158.8,167.1 150,167.1 174.8,133 183.4,159.1 "/>
<polygon class="st5" points="152,172.9 159.5,167.5 183.6,159.7 192.3,186 "/>
<polygon class="st0" points="188.7,229 193,187.9 220.6,272.9 "/>
<polygon class="st1" points="188.3,229.4 220.1,273.3 147.2,220.2 "/>
<polygon class="st3" points="170.1,203.4 192.5,187.4 188.2,228.4 "/>
<polygon class="st2" points="169.6,203.7 187.8,228.7 147.2,219.7 "/>
<polygon class="st4" points="192.5,186.7 169.7,202.9 154.5,182 151.7,173.4 192.5,186.7 "/>
<polygon class="st5" points="146.8,177.1 154.2,182.5 169.3,203.3 146.8,219.3 "/>
<polygon class="st0" points="146.2,100.1 118.5,131.1 146.2,45.8 "/>
<polygon class="st1" points="146.8,99.9 146.8,99.9 146.8,45.8 174.6,131.6 "/>
<polygon class="st3" points="146.2,131.9 118.5,131.9 146.2,101 "/>
<polygon class="st2" points="146.8,131.9 146.8,100.7 174.2,131.9 "/>
<polygon class="st5" points="149.6,166.8 146.8,158.2 146.8,132.5 174.5,132.5 "/>
<polygon class="st4" points="146.2,158.2 143.4,166.8 118.5,132.5 146.2,132.5 "/>
<polygon class="st1" points="78.1,148.9 27.1,132.3 116.6,132.3 "/>
<polygon class="st0" points="78,149.5 99.3,185.5 26.9,132.9 "/>
<polygon class="st2" points="108.8,158.9 78.9,149.2 117.2,132.7 "/>
<polygon class="st3" points="108.6,159.4 100.2,185.8 78.8,149.7 "/>
<polygon class="st4" points="133.5,167.5 141,172.9 100.7,186 109.2,159.6 "/>
<polygon class="st5" points="117.9,132.5 143,167.1 134.2,167.1 109.3,159.1 "/>
<polygon class="st5" points="100.4,186.7 100.4,186.7 141.3,173.4 138.5,182 123.2,203.1 "/>
<polygon class="st4" points="146.2,219.6 146.2,219.6 123.6,203.4 138.8,182.5 146.2,177.1 146.2,219.7 146.2,219.7 "/>
<polygon class="st1" points="100,187.9 105.1,228 72.4,273.1 "/>
<polygon class="st2" points="122.9,203.5 105.6,227.3 100.5,187.4 "/>
<polygon class="st0" points="105.2,228.8 145.8,220.3 73,273.1 "/>
<polygon class="st3" points="123.3,203.9 145.4,219.8 105.7,228.1 "/>
<text transform="matrix(1 0 0 1 144.6035 172.8291)" class="st6 st7 st8">1</text>
<text transform="matrix(1 0 0 1 135.6035 146.8291)" class="st6 st7 st8">2</text>
<text transform="matrix(1 0 0 1 153.6035 146.8291)" class="st6 st7 st8">3</text>
<text transform="matrix(1 0 0 1 168.6035 155.8291)" class="st6 st7 st8">4</text>
<text transform="matrix(1 0 0 1 170.3535 173.0791)" class="st6 st7 st8">5</text>
<text transform="matrix(1 0 0 1 165.3535 188.0791)" class="st6 st7 st8">6</text>
<text transform="matrix(1 0 0 1 152.3535 199.0791)" class="st6 st7 st8">7</text>
<text transform="matrix(1 0 0 1 138.3535 199.0791)" class="st6 st7 st8">8</text>
<text transform="matrix(1 0 0 1 121.3535 189.0791)" class="st6 st7 st8">9</text>
<text transform="matrix(1 0 0 1 113.3535 173.0791)" class="st6 st7 st8">10</text>
<text transform="matrix(1 0 0 1 119.3535 156.0791)" class="st6 st7 st8">11</text>
<text transform="matrix(1 0 0 1 134.3535 124.0791)" class="st6 st7 st8">12</text>
<text transform="matrix(1 0 0 1 152.3535 124.0791)" class="st6 st7 st8">13</text>
<text transform="matrix(1 0 0 1 188.3535 149.0791)" class="st6 st7 st8">14</text>
<text transform="matrix(1 0 0 1 192.3535 166.0791)" class="st6 st7 st8">15</text>
<text transform="matrix(1 0 0 1 180.3125 208.0791)" class="st6 st7 st8">16</text>
<text transform="matrix(1 0 0 1 165.3535 218.0791)" class="st6 st7 st8">17</text>
<text transform="matrix(1 0 0 1 122.3125 218.0791)" class="st6 st7 st8">18</text>
<text transform="matrix(1 0 0 1 107.3535 207.0791)" class="st6 st7 st8">19</text>
<text transform="matrix(1 0 0 1 93.3535 165.0791)" class="st6 st7 st8">20</text>
<text transform="matrix(1 0 0 1 98.3535 149.0791)" class="st6 st7 st8">21</text>
<text transform="matrix(1 0 0 1 134.3535 95.0791)" class="st6 st7 st8">22</text>
<text transform="matrix(1 0 0 1 152.3535 95.0791)" class="st6 st7 st8">23</text>
<text transform="matrix(1 0 0 1 217.3535 140.0791)" class="st6 st7 st8">24</text>
<text transform="matrix(1 0 0 1 222.3535 155.0791)" class="st6 st7 st8">25</text>
<text transform="matrix(1 0 0 1 196.3535 232.0791)" class="st6 st7 st8">26</text>
<text transform="matrix(1 0 0 1 183.3535 242.0791)" class="st6 st7 st8">27</text>
<text transform="matrix(1 0 0 1 103.3535 242.0791)" class="st6 st7 st8">28</text>
<text transform="matrix(1 0 0 1 91.3535 232.0791)" class="st6 st7 st8">29</text>
<text transform="matrix(1 0 0 1 63.3125 155.0791)" class="st6 st7 st8">30</text>
<text transform="matrix(1 0 0 1 69.3535 142.0791)" class="st6 st7 st8">31</text>
</svg>
