<svg id="Layer_1" data-name="Layer 1" xmlns="http://www.w3.org/2000/svg" viewBox="0 0 161.33 153.44"><defs><style>.cls-1{fill:#3d3d3d;}</style></defs><title>star_V1</title><path class="cls-1" d="M219.67,133.57H158L139,75l-19,58.61H58.33l49.85,36.22-19,58.61L139,192.18l49.85,36.22-19-58.61Zm-78.63,23L139.22,151V134.09h18.17ZM138.78,151,137,156.61l-16.36-22.52h18.17Zm-2.14,5.87h-5.77l-16.36-5.31,5.61-17.43Zm-6.21.32,4.85,3.53-26.49,8.61L114.37,152Zm5.06,3.92-1.82,5.62-10.06,13.85-14.94-10.76Zm-1.53,6,4.82-3.5v27.94L124,180.88Zm5.26-3.5,4.85,3.53L154,180.79,139.22,191.3Zm5.1,3.11-1.81-5.57,26.82,8.71-15,10.66Zm-1.6-6,4.85-3.53,15.9-5.16,5.74,17.3Zm4.42-3.85h-5.76l16.26-22.4,5.69,17.14Zm10.93-22.53L183.78,145l-20,6.51Zm-18.84-.72V113.18l18,20.47Zm-.44,0H120.63l18.15-20.28Zm-24.69,17.8-19.6-6.37,25.13-10.82Zm-.14.42-5.56,17.3-14-23.66Zm9.4,29.11L112,196.59l-3.31-26.15Zm.36.26,14.5,10.44-26,5.45Zm30.54-.1,11.93,16.41-26.63-5.95Zm.36-.26,14.68-10.45-2.79,26.82Zm9.28-29,20.26-6.58-14.5,23.93Zm53.84-17.49-47.27,34.35,14.33-23.64Zm-33.3,10.36L158.35,134h59.24Zm-45.2-32.28V77.07l18.26,56.21Zm-.44.19L120.6,133l18.18-55.94ZM93.85,144.88,60.41,134h58.68Zm-.1.43,14,23.59L60.27,134.43Zm14.56,25.53,3.33,26.27L90.17,226.69Zm3.47,26.82,26.56-5.56L90.67,226.75Zm54.78.43,20.87,28.73-47.83-34.75Zm.32-.31,2.8-26.94,18.1,55.71Zm2.77-28.44h0ZM90,227.14l.05,0-.09.06Z" transform="translate(-58.33 -74.96)"/></svg>