<?xml version="1.0" encoding="utf-8"?>
<!-- Generator: Adobe Illustrator 21.0.0, SVG Export Plug-In . SVG Version: 6.00 Build 0)  -->
<svg version="1.1" id="Layer_1" xmlns="http://www.w3.org/2000/svg" xmlns:xlink="http://www.w3.org/1999/xlink" x="0px" y="0px"
	 viewBox="0 0 292 333" style="enable-background:new 0 0 292 333;" xml:space="preserve">
<style type="text/css">
	.st0{fill:none;stroke:#2B3990;stroke-width:0.5;stroke-miterlimit:10;}
	.st1{fill:none;stroke:#007097;stroke-width:0.5;stroke-miterlimit:10;}
	.st2{fill:none;stroke:#01A769;stroke-width:0.5;stroke-miterlimit:10;}
	.st3{fill:none;stroke:#079085;stroke-width:0.5;stroke-miterlimit:10;}
	.st4{fill:#0CB14B;}
	.st5{fill:#05828F;}
	.st6{font-family:'MyriadPro-Bold';}
	.st7{font-size:8px;}
	.st8{fill:#FFFFFF;}
</style>
<polygon class="st0" points="141.7,30.6 169.5,116.3 259.7,116.3 186.7,169.3 214.6,255.1 141.7,202.1 68.7,255.1 96.6,169.3 
	23.7,116.3 113.8,116.3 "/>
<line class="st1" x1="141.7" y1="202.1" x2="141.7" y2="30.6"/>
<line class="st1" x1="186.7" y1="169.3" x2="23.7" y2="116.3"/>
<line class="st1" x1="169.5" y1="116.3" x2="69.5" y2="254.1"/>
<line class="st1" x1="113.8" y1="116.3" x2="214.6" y2="255.1"/>
<line class="st1" x1="259.7" y1="116.3" x2="96.6" y2="169.3"/>
<polygon class="st2" points="113.6,116.5 169.2,116.5 186.8,169.7 141.4,202 96.5,169.7 "/>
<polyline class="st3" points="96.6,169.3 75.1,133 113.6,116.5 "/>
<polyline class="st3" points="113.7,116.6 141.8,85.2 169.2,116.4 "/>
<polyline class="st3" points="141.4,201.9 101.7,210.2 96.6,170 "/>
<polyline class="st3" points="186.8,169.5 182.5,210.9 141.7,201.8 "/>
<polyline class="st3" points="169.4,116.7 208.9,133 187.1,168.9 "/>
<polygon class="st4" points="141.7,141.8 144.6,150.8 154,150.8 146.4,156.3 149.3,165.2 141.7,159.7 134.1,165.2 137,156.3 
	129.4,150.8 138.8,150.8 "/>
<text transform="matrix(1 0 0 1 130.2249 131.6665)" class="st5 st6 st7">2</text>
<text transform="matrix(1 0 0 1 146.8368 131.6665)" class="st5 st6 st7">3</text>
<text transform="matrix(1 0 0 1 131.7811 182.6665)" class="st5 st6 st7">8</text>
<text transform="matrix(1 0 0 1 147.8929 182.4165)" class="st5 st6 st7">7</text>
<text transform="matrix(1 0 0 1 163.5698 142.4998)" class="st5 st6 st7">4</text>
<text transform="matrix(1 0 0 1 168.2495 159.2498)" class="st5 st6 st7">5</text>
<text transform="matrix(1 0 0 1 162.1895 173.7498)" class="st5 st6 st7">6</text>
<text transform="matrix(1 0 0 1 116.7928 173.6665)" class="st5 st6 st7">9</text>
<text transform="matrix(1 0 0 1 109.513 158.6665)" class="st5 st6 st7">10</text>
<text transform="matrix(0.9707 0 0 1 140.5021 157.6665)" class="st8 st6 st7">1</text>
<text transform="matrix(1 0 0 1 114.825 141.6665)" class="st5 st6 st7">11</text>
<text transform="matrix(1 0 0 1 130.2249 131.6665)" class="st5 st6 st7">2</text>
<text transform="matrix(1 0 0 1 146.8368 131.6665)" class="st5 st6 st7">3</text>
<text transform="matrix(1 0 0 1 130.2249 109.6665)" class="st5 st6 st7">12</text>
<text transform="matrix(1 0 0 1 145.6371 109.6665)" class="st5 st6 st7">13</text>
<text transform="matrix(1 0 0 1 181.1196 135.3332)" class="st5 st6 st7">14</text>
<text transform="matrix(1 0 0 1 186.9665 152.9998)" class="st5 st6 st7">15</text>
<text transform="matrix(1 0 0 1 174.2398 191.3332)" class="st5 st6 st7">16</text>
<text transform="matrix(1 0 0 1 160.3599 201.9998)" class="st5 st6 st7">17</text>
<text transform="matrix(1 0 0 1 117.5809 201.9998)" class="st5 st6 st7">18</text>
<text transform="matrix(1 0 0 1 104.5931 191.9998)" class="st5 st6 st7">19</text>
<text transform="matrix(1 0 0 1 90.3051 150.9998)" class="st5 st6 st7">20</text>
<text transform="matrix(1 0 0 1 94.6171 134.9998)" class="st5 st6 st7">21</text>
<text transform="matrix(1 0 0 1 130.597 78.8477)" class="st5 st6 st7">22</text>
<text transform="matrix(1 0 0 1 145.429 78.8477)" class="st5 st6 st7">23</text>
<text transform="matrix(1 0 0 1 213.245 126.8477)" class="st5 st6 st7">24</text>
<text transform="matrix(1 0 0 1 218.0918 139.5144)" class="st5 st6 st7">25</text>
<text transform="matrix(1 0 0 1 191.3651 219.1811)" class="st5 st6 st7">26</text>
<text transform="matrix(1 0 0 1 179.1519 226.5144)" class="st5 st6 st7">27</text>
<text transform="matrix(1 0 0 1 100.7062 223.1811)" class="st5 st6 st7">28</text>
<text transform="matrix(1 0 0 1 88.3851 213.5144)" class="st5 st6 st7">29</text>
<text transform="matrix(1 0 0 1 64.0002 141.8477)" class="st5 st6 st7">30</text>
<text transform="matrix(1 0 0 1 65 127.8477)" class="st5 st6 st7">31</text>
</svg>
